<svg width="255" height="378" viewBox="0 0 255 378" fill="none" xmlns="http://www.w3.org/2000/svg">
<mask id="path-1-outside-1_1_525" maskUnits="userSpaceOnUse" x="0" y="0" width="255" height="378" fill="black">
<rect fill="white" width="255" height="378"/>
<path d="M119.562 1.12198C141.051 1.12198 159.817 5.81332 175.858 15.196C192.202 24.5787 204.309 36.3827 212.178 50.608V5.20798H253.946V259.448C253.946 282.148 249.103 302.275 239.418 319.83C229.733 337.687 215.81 351.61 197.65 361.598C179.793 371.586 158.909 376.58 134.998 376.58C102.31 376.58 75.07 368.862 53.278 353.426C31.486 337.99 18.6227 316.955 14.688 290.32H55.548C60.088 305.453 69.4707 317.56 83.696 326.64C97.9213 336.023 115.022 340.714 134.998 340.714C157.698 340.714 176.161 333.601 190.386 319.376C204.914 305.151 212.178 285.175 212.178 259.448V207.238C204.006 221.766 191.899 233.873 175.858 243.558C159.817 253.243 141.051 258.086 119.562 258.086C97.4673 258.086 77.34 252.638 59.18 241.742C41.3227 230.846 27.2487 215.561 16.958 195.888C6.66733 176.215 1.522 153.817 1.522 128.696C1.522 103.272 6.66733 81.026 16.958 61.958C27.2487 42.5873 41.3227 27.6053 59.18 17.012C77.34 6.41865 97.4673 1.12198 119.562 1.12198ZM212.178 129.15C212.178 110.385 208.395 94.0407 200.828 80.118C193.261 66.1953 182.971 55.602 169.956 48.338C157.244 40.7713 143.17 36.988 127.734 36.988C112.298 36.988 98.224 40.62 85.512 47.884C72.8 55.148 62.6607 65.7413 55.094 79.664C47.5273 93.5867 43.744 109.931 43.744 128.696C43.744 147.764 47.5273 164.411 55.094 178.636C62.6607 192.559 72.8 203.303 85.512 210.87C98.224 218.134 112.298 221.766 127.734 221.766C143.17 221.766 157.244 218.134 169.956 210.87C182.971 203.303 193.261 192.559 200.828 178.636C208.395 164.411 212.178 147.915 212.178 129.15Z"/>
</mask>
<path d="M175.858 15.196L175.353 16.0592L175.36 16.0632L175.858 15.196ZM212.178 50.608L211.303 51.0921L213.178 50.608H212.178ZM212.178 5.20798V4.20798H211.178V5.20798H212.178ZM253.946 5.20798H254.946V4.20798H253.946V5.20798ZM239.418 319.83L238.542 319.347L238.539 319.353L239.418 319.83ZM197.65 361.598L197.168 360.722L197.162 360.725L197.65 361.598ZM53.278 353.426L52.7 354.242L52.7 354.242L53.278 353.426ZM14.688 290.32V289.32H13.5294L13.6987 290.466L14.688 290.32ZM55.548 290.32L56.5058 290.033L56.292 289.32H55.548V290.32ZM83.696 326.64L84.2466 325.805L84.2403 325.801L84.234 325.797L83.696 326.64ZM190.386 319.376L189.686 318.661L189.679 318.669L190.386 319.376ZM212.178 207.238H213.178V203.42L211.306 206.748L212.178 207.238ZM175.858 243.558L175.341 242.702L175.858 243.558ZM59.18 241.742L58.6591 242.596L58.6655 242.599L59.18 241.742ZM16.958 195.888L17.8441 195.424L17.8441 195.424L16.958 195.888ZM16.958 61.958L17.838 62.4329L17.8411 62.4272L16.958 61.958ZM59.18 17.012L58.6761 16.1482L58.6698 16.1519L59.18 17.012ZM169.956 48.338L169.445 49.1973L169.456 49.2044L169.469 49.2112L169.956 48.338ZM85.512 47.884L85.0159 47.0157L85.0159 47.0157L85.512 47.884ZM55.094 79.664L55.9726 80.1415L55.9726 80.1415L55.094 79.664ZM55.094 178.636L54.2111 179.106L54.2154 179.114L55.094 178.636ZM85.512 210.87L85.0005 211.729L85.0082 211.734L85.0159 211.738L85.512 210.87ZM169.956 210.87L170.452 211.738L170.459 211.735L169.956 210.87ZM200.828 178.636L201.707 179.114L201.711 179.106L200.828 178.636ZM119.562 1.12198V2.12198C140.902 2.12198 159.488 6.7793 175.353 16.0592L175.858 15.196L176.363 14.3328C160.146 4.84733 141.201 0.121981 119.562 0.121981V1.12198ZM175.858 15.196L175.36 16.0632C191.571 25.3697 203.535 37.0505 211.303 51.0921L212.178 50.608L213.053 50.1239C205.082 35.7148 192.833 23.7876 176.356 14.3287L175.858 15.196ZM212.178 50.608H213.178V5.20798H212.178H211.178V50.608H212.178ZM212.178 5.20798V6.20798H253.946V5.20798V4.20798H212.178V5.20798ZM253.946 5.20798H252.946V259.448H253.946H254.946V5.20798H253.946ZM253.946 259.448H252.946C252.946 282.002 248.136 301.959 238.542 319.347L239.418 319.83L240.294 320.313C250.071 302.592 254.946 282.294 254.946 259.448H253.946ZM239.418 319.83L238.539 319.353C228.947 337.039 215.164 350.824 197.168 360.722L197.65 361.598L198.132 362.474C216.456 352.396 230.518 338.336 240.297 320.307L239.418 319.83ZM197.65 361.598L197.162 360.725C179.477 370.617 158.767 375.58 134.998 375.58V376.58V377.58C159.051 377.58 180.108 372.555 198.138 362.471L197.65 361.598ZM134.998 376.58V375.58C102.47 375.58 75.4443 367.902 53.856 352.61L53.278 353.426L52.7 354.242C74.6957 369.822 102.15 377.58 134.998 377.58V376.58ZM53.278 353.426L53.856 352.61C32.2889 337.333 19.5724 316.541 15.6773 290.174L14.688 290.32L13.6987 290.466C17.6729 317.368 30.6832 338.647 52.7 354.242L53.278 353.426ZM14.688 290.32V291.32H55.548V290.32V289.32H14.688V290.32ZM55.548 290.32L54.5902 290.607C59.2039 305.987 68.7456 318.284 83.158 327.483L83.696 326.64L84.234 325.797C70.1958 316.836 60.9721 304.92 56.5058 290.033L55.548 290.32ZM83.696 326.64L83.1454 327.475C97.5607 336.983 114.861 341.714 134.998 341.714V340.714V339.714C115.183 339.714 98.282 335.063 84.2466 325.805L83.696 326.64ZM134.998 340.714V341.714C157.926 341.714 176.656 334.521 191.093 320.083L190.386 319.376L189.679 318.669C175.666 332.682 157.47 339.714 134.998 339.714V340.714ZM190.386 319.376L191.086 320.091C205.854 305.63 213.178 285.368 213.178 259.448H212.178H211.178C211.178 284.981 203.974 304.671 189.686 318.661L190.386 319.376ZM212.178 259.448H213.178V207.238H212.178H211.178V259.448H212.178ZM212.178 207.238L211.306 206.748C203.229 221.107 191.253 233.095 175.341 242.702L175.858 243.558L176.375 244.414C192.545 234.651 204.783 222.425 213.05 207.728L212.178 207.238ZM175.858 243.558L175.341 242.702C159.478 252.28 140.896 257.086 119.562 257.086V258.086V259.086C141.206 259.086 160.156 254.207 176.375 244.414L175.858 243.558ZM119.562 258.086V257.086C97.6404 257.086 77.6922 251.683 59.6945 240.885L59.18 241.742L58.6655 242.599C76.9878 253.593 97.2943 259.086 119.562 259.086V258.086ZM59.18 241.742L59.7009 240.888C42.008 230.093 28.056 214.947 17.8441 195.424L16.958 195.888L16.0719 196.351C26.4413 216.175 40.6373 231.599 58.6591 242.596L59.18 241.742ZM16.958 195.888L17.8441 195.424C7.6376 175.912 2.522 153.677 2.522 128.696H1.522H0.522001C0.522001 153.957 5.69707 176.517 16.0719 196.351L16.958 195.888ZM1.522 128.696H2.522C2.522 103.409 7.63874 81.3316 17.838 62.4329L16.958 61.958L16.078 61.4831C5.69593 80.7204 0.522001 103.135 0.522001 128.696H1.522ZM16.958 61.958L17.8411 62.4272C28.0508 43.209 41.9997 28.3664 59.6902 17.872L59.18 17.012L58.6698 16.1519C40.6456 26.8443 26.4466 41.9657 16.0749 61.4888L16.958 61.958ZM59.18 17.012L59.6839 17.8758C77.683 7.37626 97.635 2.12198 119.562 2.12198V1.12198V0.121981C97.2997 0.121981 76.997 5.46105 58.6761 16.1482L59.18 17.012ZM212.178 129.15H213.178C213.178 110.249 209.366 93.7345 201.707 79.6405L200.828 80.118L199.949 80.5955C207.423 94.3468 211.178 110.521 211.178 129.15H212.178ZM200.828 80.118L201.707 79.6405C194.056 65.5625 183.634 54.8269 170.443 47.4648L169.956 48.338L169.469 49.2112C182.307 56.3771 192.467 66.8281 199.949 80.5955L200.828 80.118ZM169.956 48.338L170.467 47.4787C157.594 39.8158 143.342 35.988 127.734 35.988V36.988V37.988C142.998 37.988 156.894 41.7268 169.445 49.1973L169.956 48.338ZM127.734 36.988V35.988C112.134 35.988 97.8873 39.6607 85.0159 47.0157L85.512 47.884L86.0081 48.7522C98.5608 41.5793 112.462 37.988 127.734 37.988V36.988ZM85.512 47.884L85.0159 47.0157C72.1293 54.3795 61.8632 65.1145 54.2154 79.1865L55.094 79.664L55.9726 80.1415C63.4582 66.3681 73.4707 55.9165 86.0081 48.7522L85.512 47.884ZM55.094 79.664L54.2154 79.1865C46.5556 93.2805 42.744 109.795 42.744 128.696H43.744H44.744C44.744 110.067 48.4991 93.8928 55.9726 80.1415L55.094 79.664ZM43.744 128.696H42.744C42.744 147.898 46.5546 164.711 54.2111 179.106L55.094 178.636L55.9769 178.166C48.5001 164.11 44.744 147.63 44.744 128.696H43.744ZM55.094 178.636L54.2154 179.114C61.8616 193.182 72.123 204.064 85.0005 211.729L85.512 210.87L86.0235 210.011C73.477 202.543 63.4598 191.935 55.9726 178.158L55.094 178.636ZM85.512 210.87L85.0159 211.738C97.8873 219.093 112.134 222.766 127.734 222.766V221.766V220.766C112.462 220.766 98.5608 217.175 86.0081 210.002L85.512 210.87ZM127.734 221.766V222.766C143.334 222.766 157.581 219.093 170.452 211.738L169.956 210.87L169.46 210.002C156.907 217.175 143.006 220.766 127.734 220.766V221.766ZM169.956 210.87L170.459 211.735C183.64 204.071 194.057 193.188 201.707 179.114L200.828 178.636L199.949 178.158C192.465 191.929 182.301 202.536 169.453 210.005L169.956 210.87ZM200.828 178.636L201.711 179.106C209.366 164.714 213.178 148.052 213.178 129.15H212.178H211.178C211.178 147.779 207.423 164.108 199.945 178.166L200.828 178.636Z" fill="#363636" mask="url(#path-1-outside-1_1_525)"/>
</svg>
