<svg width="31" height="35" viewBox="0 0 31 35" fill="none" xmlns="http://www.w3.org/2000/svg">
<path d="M21.904 4.22867C23.3882 5.05468 24.412 6.16213 24.9755 7.5511C25.5575 8.95037 25.6699 10.4511 25.3127 12.0536L27.7117 7.74314L30.2441 9.15255L20.6828 26.3327C19.8146 27.8926 18.7466 29.1129 17.479 29.9935C16.2114 30.8741 14.851 31.3537 13.3979 31.4322C11.9449 31.5106 10.504 31.1523 9.07551 30.3573C7.01614 29.2112 5.64554 27.7225 4.9637 25.8914C4.27042 24.0808 4.26731 22.1434 4.95435 20.0794L7.45898 21.4733C7.12753 22.7674 7.19294 23.9598 7.65512 25.0504C8.12447 26.1718 9.00847 27.094 10.3072 27.8168C11.6801 28.5808 13.086 28.7181 14.5248 28.2284C15.9708 27.7697 17.1793 26.668 18.1503 24.9232L20.7034 20.3357C19.5298 21.4838 18.1952 22.1792 16.6993 22.4221C15.2219 22.6752 13.7411 22.3887 12.2569 21.5627C10.9026 20.809 9.89081 19.7889 9.22171 18.5025C8.55261 17.216 8.27175 15.7559 8.37918 14.122C8.5166 12.4779 9.07651 10.7733 10.0589 9.0081C11.0413 7.24291 12.1949 5.86869 13.5197 4.88541C14.8631 3.91246 16.2576 3.3714 17.7036 3.26204C19.1495 3.15268 20.5496 3.47491 21.904 4.22867ZM21.2396 7.12524C19.6811 6.25791 18.1204 6.11515 16.5573 6.69695C15.0243 7.26852 13.7208 8.51903 12.647 10.4485C11.5732 12.3779 11.1917 14.155 11.5025 15.7796C11.8433 17.3941 12.7929 18.635 14.3513 19.5023C15.3531 20.0599 16.3865 20.299 17.4513 20.2194C18.5347 20.1503 19.556 19.7778 20.5153 19.1019C21.4861 18.4055 22.3141 17.4416 22.9995 16.21C23.6849 14.9785 24.0677 13.7667 24.1479 12.5747C24.2282 11.3827 24.0065 10.3184 23.4828 9.38181C22.9892 8.43497 22.2414 7.68281 21.2396 7.12524Z" fill="black"/>
<mask id="mask0_1_415" style="mask-type:alpha" maskUnits="userSpaceOnUse" x="4" y="3" width="27" height="29">
<path d="M21.9046 4.23281C23.3897 5.05933 24.4143 6.16719 24.9785 7.55647C25.5611 8.95605 25.6741 10.457 25.3172 12.0595L27.7159 7.74932L30.25 9.15961L20.6892 26.3387C19.821 27.8986 18.7529 29.1187 17.485 29.999C16.217 30.8794 14.8562 31.3586 13.4024 31.4366C11.9487 31.5147 10.5072 31.156 9.07772 30.3604C7.01707 29.2136 5.64541 27.7244 4.96273 25.8929C4.2686 24.0819 4.26493 22.1443 4.95169 20.0802L7.45788 21.475C7.12665 22.7692 7.19244 23.9617 7.65515 25.0526C8.12504 26.1743 9.00971 27.0968 10.3092 27.82C11.683 28.5845 13.0896 28.7222 14.5289 28.2329C15.9755 27.7746 17.1842 26.6731 18.1551 24.9284L20.7081 20.3412C19.5343 21.4891 18.1992 22.1841 16.7027 22.4266C15.2247 22.6793 13.7432 22.3924 12.2581 21.5659C10.9029 20.8116 9.89034 19.7912 9.22056 18.5044C8.55078 17.2176 8.26937 15.7573 8.37637 14.1233C8.51339 12.4791 9.07306 10.7744 10.0554 9.00931C11.0377 7.24423 12.1915 5.87019 13.5166 4.8872C14.8603 3.91454 16.2554 3.37382 17.7019 3.26487C19.1485 3.15591 20.5493 3.47859 21.9046 4.23281ZM21.2407 7.12949C19.6813 6.26162 18.1198 6.11839 16.5562 6.6998C15.0226 7.27098 13.7189 8.52125 12.6451 10.4506C11.5714 12.3799 11.1902 14.157 11.5016 15.7819C11.843 17.3966 12.7934 18.638 14.3528 19.5058C15.3553 20.0638 16.3891 20.3032 17.4544 20.2239C18.5383 20.1551 19.56 19.7828 20.5195 19.1072C21.4905 18.411 22.3187 17.4472 23.0041 16.2157C23.6894 14.9843 24.072 13.7725 24.152 12.5804C24.2319 11.3882 24.0098 10.3238 23.4856 9.38694C22.9915 8.43986 22.2432 7.68741 21.2407 7.12949Z" fill="black"/>
</mask>
<g mask="url(#mask0_1_415)">
<path d="M23.0863 26.2299L14.0571 24.1357L12.9866 27.903L22.0159 29.9971L23.0863 26.2299Z" fill="#FF7E21" stroke="#FBFBFB" stroke-width="2"/>
</g>
</svg>
