<svg width="258" height="376" viewBox="0 0 258 376" fill="none" xmlns="http://www.w3.org/2000/svg">
<mask id="path-1-outside-1_149_3" maskUnits="userSpaceOnUse" x="0" y="0" width="258" height="376" fill="black">
<rect fill="white" width="258" height="376"/>
<path d="M44.272 52.062C52.444 37.8367 64.5507 26.0327 80.592 16.65C96.936 6.96465 115.853 2.12198 137.342 2.12198C159.437 2.12198 179.413 7.41865 197.27 18.012C215.43 28.6053 229.655 43.5873 239.946 62.958C250.237 82.026 255.382 104.272 255.382 129.696C255.382 154.817 250.237 177.215 239.946 196.888C229.655 216.561 215.43 231.846 197.27 242.742C179.413 253.638 159.437 259.086 137.342 259.086C116.155 259.086 97.39 254.395 81.046 245.012C65.0047 235.327 52.7467 223.371 44.272 209.146V373.04H2.958V6.20798H44.272V52.062ZM213.16 129.696C213.16 110.931 209.377 94.5867 201.81 80.664C194.243 66.7413 183.953 56.148 170.938 48.884C158.226 41.62 144.152 37.988 128.716 37.988C113.583 37.988 99.5087 41.7713 86.494 49.338C73.782 56.602 63.4913 67.3467 55.622 81.572C48.0553 95.4947 44.272 111.687 44.272 130.15C44.272 148.915 48.0553 165.411 55.622 179.636C63.4913 193.559 73.782 204.303 86.494 211.87C99.5087 219.134 113.583 222.766 128.716 222.766C144.152 222.766 158.226 219.134 170.938 211.87C183.953 204.303 194.243 193.559 201.81 179.636C209.377 165.411 213.16 148.764 213.16 129.696Z"/>
</mask>
<path d="M44.272 52.062H42.272V59.5585L46.0062 53.0582L44.272 52.062ZM80.592 16.65L81.6018 18.3764L81.6116 18.3706L80.592 16.65ZM197.27 18.012L196.25 19.7321L196.256 19.7358L196.262 19.7396L197.27 18.012ZM239.946 62.958L238.18 63.8963L238.186 63.9079L239.946 62.958ZM239.946 196.888L241.718 197.815L241.718 197.815L239.946 196.888ZM197.27 242.742L196.241 241.027L196.235 241.031L196.228 241.035L197.27 242.742ZM81.046 245.012L80.0123 246.724L80.0311 246.736L80.0503 246.747L81.046 245.012ZM44.272 209.146L45.9902 208.122L42.272 201.881V209.146H44.272ZM44.272 373.04V375.04H46.272V373.04H44.272ZM2.958 373.04H0.958003V375.04H2.958V373.04ZM2.958 6.20798V4.20798H0.958003V6.20798H2.958ZM44.272 6.20798H46.272V4.20798H44.272V6.20798ZM201.81 80.664L203.567 79.709L203.567 79.709L201.81 80.664ZM170.938 48.884L169.946 50.6205L169.954 50.6255L169.963 50.6304L170.938 48.884ZM86.494 49.338L87.4863 51.0745L87.4928 51.0708L87.4992 51.067L86.494 49.338ZM55.622 81.572L53.8719 80.6039L53.8683 80.6104L53.8648 80.617L55.622 81.572ZM55.622 179.636L53.8563 180.575L53.8683 180.598L53.8809 180.62L55.622 179.636ZM86.494 211.87L85.471 213.589L85.495 213.603L85.5193 213.616L86.494 211.87ZM170.938 211.87L171.93 213.606L171.937 213.603L171.943 213.599L170.938 211.87ZM201.81 179.636L203.567 180.591L203.572 180.583L203.576 180.575L201.81 179.636ZM44.272 52.062L46.0062 53.0582C53.9825 39.1737 65.8208 27.6068 81.6018 18.3764L80.592 16.65L79.5822 14.9236C63.2806 24.4585 50.9056 36.4996 42.5378 51.0657L44.272 52.062ZM80.592 16.65L81.6116 18.3706C97.6081 8.89117 116.163 4.12198 137.342 4.12198V2.12198V0.121981C115.542 0.121981 96.2639 5.03813 79.5724 14.9294L80.592 16.65ZM137.342 2.12198V4.12198C159.102 4.12198 178.721 9.33381 196.25 19.7321L197.27 18.012L198.29 16.2919C180.104 5.5035 159.772 0.121981 137.342 0.121981V2.12198ZM197.27 18.012L196.262 19.7396C214.087 30.1371 228.056 44.8392 238.18 63.8963L239.946 62.958L241.712 62.0197C231.255 42.3354 216.773 27.0735 198.278 16.2844L197.27 18.012ZM239.946 62.958L238.186 63.9079C248.294 82.6372 253.382 104.546 253.382 129.696H255.382H257.382C257.382 103.998 252.179 81.4148 241.706 62.0081L239.946 62.958ZM255.382 129.696H253.382C253.382 154.537 248.296 176.609 238.174 195.961L239.946 196.888L241.718 197.815C252.177 177.82 257.382 155.097 257.382 129.696H255.382ZM239.946 196.888L238.174 195.961C228.045 215.325 214.07 230.33 196.241 241.027L197.27 242.742L198.299 244.457C216.79 233.362 231.266 217.798 241.718 197.815L239.946 196.888ZM197.27 242.742L196.228 241.035C178.703 251.728 159.091 257.086 137.342 257.086V259.086V261.086C159.783 261.086 180.123 255.548 198.312 244.449L197.27 242.742ZM137.342 259.086V257.086C116.46 257.086 98.0465 252.465 82.0417 243.277L81.046 245.012L80.0503 246.747C96.7335 256.324 115.85 261.086 137.342 261.086V259.086ZM81.046 245.012L82.0797 243.3C66.2822 233.762 54.2757 222.03 45.9902 208.122L44.272 209.146L42.5538 210.17C51.2177 224.713 63.7272 236.892 80.0123 246.724L81.046 245.012ZM44.272 209.146H42.272V373.04H44.272H46.272V209.146H44.272ZM44.272 373.04V371.04H2.958V373.04V375.04H44.272V373.04ZM2.958 373.04H4.958V6.20798H2.958H0.958003V373.04H2.958ZM2.958 6.20798V8.20798H44.272V6.20798V4.20798H2.958V6.20798ZM44.272 6.20798H42.272V52.062H44.272H46.272V6.20798H44.272ZM213.16 129.696H215.16C215.16 110.659 211.32 93.9744 203.567 79.709L201.81 80.664L200.053 81.619C207.433 95.1989 211.16 111.203 211.16 129.696H213.16ZM201.81 80.664L203.567 79.709C195.832 65.4758 185.279 54.5979 171.913 47.1376L170.938 48.884L169.963 50.6304C182.626 57.6981 192.655 68.0069 200.053 81.619L201.81 80.664ZM170.938 48.884L171.93 47.1475C158.9 39.7013 144.48 35.988 128.716 35.988V37.988V39.988C143.824 39.988 157.553 43.5386 169.946 50.6205L170.938 48.884ZM128.716 37.988V35.988C113.231 35.988 98.8104 39.8638 85.4888 47.609L86.494 49.338L87.4992 51.067C100.207 43.6788 113.934 39.988 128.716 39.988V37.988ZM86.494 49.338L85.5017 47.6015C72.4372 55.067 61.8985 66.0942 53.8719 80.6039L55.622 81.572L57.3721 82.5401C65.0841 68.5991 75.1268 58.137 87.4863 51.0745L86.494 49.338ZM55.622 81.572L53.8648 80.617C46.1143 94.8778 42.272 111.409 42.272 130.15H44.272H46.272C46.272 111.966 49.9964 96.1115 57.3793 82.527L55.622 81.572ZM44.272 130.15H42.272C42.272 149.189 46.1122 166.016 53.8563 180.575L55.622 179.636L57.3877 178.697C49.9984 164.805 46.272 148.642 46.272 130.15H44.272ZM55.622 179.636L53.8809 180.62C61.9072 194.821 72.4357 205.829 85.471 213.589L86.494 211.87L87.517 210.151C75.1283 202.777 65.0754 192.297 57.3631 178.652L55.622 179.636ZM86.494 211.87L85.5193 213.616C98.8366 221.049 113.247 224.766 128.716 224.766V222.766V220.766C113.918 220.766 100.181 217.219 87.4687 210.124L86.494 211.87ZM128.716 222.766V224.766C144.48 224.766 158.9 221.053 171.93 213.606L170.938 211.87L169.946 210.134C157.553 217.215 143.824 220.766 128.716 220.766V222.766ZM170.938 211.87L171.943 213.599C185.292 205.838 195.835 194.818 203.567 180.591L201.81 179.636L200.053 178.681C192.651 192.299 182.614 202.768 169.933 210.141L170.938 211.87ZM201.81 179.636L203.576 180.575C211.322 166.012 215.16 149.032 215.16 129.696H213.16H211.16C211.16 148.496 207.431 164.809 200.044 178.697L201.81 179.636Z" fill="#363636" mask="url(#path-1-outside-1_149_3)"/>
</svg>
