<svg width="197" height="262" viewBox="0 0 197 262" fill="none" xmlns="http://www.w3.org/2000/svg">
<mask id="path-1-outside-1_1_346" maskUnits="userSpaceOnUse" x="0" y="0" width="197" height="262" fill="black">
<rect fill="white" width="197" height="262"/>
<path d="M104.034 259.086C84.966 259.086 67.8653 255.908 52.732 249.552C37.5987 242.893 25.6433 233.813 16.866 222.312C8.08867 210.508 3.246 197.039 2.338 181.906H45.014C46.2247 194.315 51.9753 204.455 62.266 212.324C72.8593 220.193 86.6307 224.128 103.58 224.128C119.319 224.128 131.728 220.647 140.808 213.686C149.888 206.725 154.428 197.947 154.428 187.354C154.428 176.458 149.585 168.437 139.9 163.292C130.215 157.844 115.233 152.547 94.954 147.402C76.4913 142.559 61.358 137.717 49.554 132.874C38.0527 127.729 28.0647 120.313 19.59 110.628C11.418 100.64 7.332 87.6253 7.332 71.584C7.332 58.872 11.1153 47.2193 18.682 36.626C26.2487 26.0327 36.9933 17.7093 50.916 11.656C64.8387 5.29999 80.7287 2.12198 98.586 2.12198C126.129 2.12198 148.375 9.08332 165.324 23.006C182.273 36.9287 191.353 55.9967 192.564 80.21H151.25C150.342 67.1953 145.045 56.7533 135.36 48.884C125.977 41.0147 113.265 37.08 97.224 37.08C82.3933 37.08 70.5893 40.258 61.812 46.614C53.0347 52.97 48.646 61.2933 48.646 71.584C48.646 79.756 51.2187 86.566 56.364 92.014C61.812 97.1593 68.4707 101.397 76.34 104.726C84.512 107.753 95.7107 111.233 109.936 115.168C127.793 120.011 142.321 124.853 153.52 129.696C164.719 134.236 174.253 141.197 182.122 150.58C190.294 159.963 194.531 172.221 194.834 187.354C194.834 200.974 191.051 213.232 183.484 224.128C175.917 235.024 165.173 243.65 151.25 250.006C137.63 256.059 121.891 259.086 104.034 259.086Z"/>
</mask>
<path d="M52.732 249.552L51.9265 251.383L51.942 251.389L51.9575 251.396L52.732 249.552ZM16.866 222.312L15.2611 223.505L15.2685 223.515L15.2761 223.525L16.866 222.312ZM2.338 181.906V179.906H0.214404L0.341591 182.026L2.338 181.906ZM45.014 181.906L47.0046 181.712L46.8284 179.906H45.014V181.906ZM62.266 212.324L61.0511 213.913L61.0622 213.921L61.0734 213.929L62.266 212.324ZM139.9 163.292L138.919 165.035L138.94 165.047L138.962 165.058L139.9 163.292ZM94.954 147.402L94.4466 149.337L94.4543 149.339L94.4621 149.341L94.954 147.402ZM49.554 132.874L48.7373 134.7L48.7659 134.712L48.7949 134.724L49.554 132.874ZM19.59 110.628L18.0421 111.894L18.063 111.92L18.0848 111.945L19.59 110.628ZM18.682 36.626L17.0545 35.4635L17.0545 35.4635L18.682 36.626ZM50.916 11.656L51.7135 13.4901L51.7301 13.4829L51.7466 13.4754L50.916 11.656ZM165.324 23.006L164.055 24.5514L165.324 23.006ZM192.564 80.21V82.21H194.667L194.562 80.1101L192.564 80.21ZM151.25 80.21L149.255 80.3492L149.385 82.21H151.25V80.21ZM135.36 48.884L134.075 50.4164L134.087 50.4264L134.099 50.4362L135.36 48.884ZM61.812 46.614L60.639 44.9941L60.639 44.9941L61.812 46.614ZM56.364 92.014L54.91 93.3872L54.9492 93.4288L54.9908 93.468L56.364 92.014ZM76.34 104.726L75.5607 106.568L75.6027 106.586L75.6454 106.601L76.34 104.726ZM109.936 115.168L109.403 117.096L109.413 117.098L109.936 115.168ZM153.52 129.696L152.726 131.532L152.747 131.541L152.769 131.549L153.52 129.696ZM182.122 150.58L180.59 151.865L180.602 151.88L180.614 151.894L182.122 150.58ZM194.834 187.354H196.834V187.334L196.834 187.314L194.834 187.354ZM183.484 224.128L181.841 222.987L181.841 222.987L183.484 224.128ZM151.25 250.006L152.062 251.834L152.071 251.83L152.081 251.825L151.25 250.006ZM104.034 259.086V257.086C85.1894 257.086 68.3582 253.946 53.5065 247.708L52.732 249.552L51.9575 251.396C67.3725 257.87 84.7426 261.086 104.034 261.086V259.086ZM52.732 249.552L53.5375 247.721C38.6689 241.179 27.0004 232.295 18.4559 221.099L16.866 222.312L15.2761 223.525C24.2863 235.332 36.5285 244.607 51.9265 251.383L52.732 249.552ZM16.866 222.312L18.4709 221.119C9.93314 209.637 5.21987 196.544 4.33441 181.786L2.338 181.906L0.341591 182.026C1.27214 197.535 6.24419 211.379 15.2611 223.505L16.866 222.312ZM2.338 181.906V183.906H45.014V181.906V179.906H2.338V181.906ZM45.014 181.906L43.0235 182.1C44.2903 195.086 50.339 205.721 61.0511 213.913L62.266 212.324L63.4809 210.735C53.6116 203.188 48.159 193.545 47.0046 181.712L45.014 181.906ZM62.266 212.324L61.0734 213.929C72.0986 222.12 86.3238 226.128 103.58 226.128V224.128V222.128C86.9375 222.128 73.6201 218.267 63.4587 210.719L62.266 212.324ZM103.58 224.128V226.128C119.596 226.128 132.485 222.587 142.025 215.273L140.808 213.686L139.591 212.099C130.971 218.708 119.041 222.128 103.58 222.128V224.128ZM140.808 213.686L142.025 215.273C151.553 207.968 156.428 198.625 156.428 187.354H154.428H152.428C152.428 197.27 148.223 205.481 139.591 212.099L140.808 213.686ZM154.428 187.354H156.428C156.428 181.602 155.147 176.503 152.508 172.133C149.87 167.763 145.945 164.239 140.838 161.526L139.9 163.292L138.962 165.058C143.54 167.49 146.879 170.549 149.084 174.2C151.288 177.851 152.428 182.21 152.428 187.354H154.428ZM139.9 163.292L140.881 161.549C130.961 155.969 115.773 150.621 95.4459 145.463L94.954 147.402L94.4621 149.341C114.692 154.474 129.468 159.719 138.919 165.035L139.9 163.292ZM94.954 147.402L95.4614 145.467C77.0469 140.637 62.0058 135.821 50.3131 131.024L49.554 132.874L48.7949 134.724C60.7103 139.613 75.9358 144.481 94.4466 149.337L94.954 147.402ZM49.554 132.874L50.3707 131.048C39.1386 126.023 29.3839 118.784 21.0952 109.311L19.59 110.628L18.0848 111.945C26.7454 121.843 36.9667 129.434 48.7373 134.7L49.554 132.874ZM19.59 110.628L21.1379 109.362C13.3238 99.8109 9.332 87.279 9.332 71.584H7.332H5.332C5.332 87.9717 9.51219 101.469 18.0421 111.894L19.59 110.628ZM7.332 71.584H9.332C9.332 59.2995 12.9788 48.0513 20.3095 37.7885L18.682 36.626L17.0545 35.4635C9.25182 46.3873 5.332 58.4445 5.332 71.584H7.332ZM18.682 36.626L20.3095 37.7885C27.6326 27.5361 38.0672 19.4233 51.7135 13.4901L50.916 11.656L50.1186 9.82185C35.9194 15.9954 24.8648 24.5292 17.0545 35.4635L18.682 36.626ZM50.916 11.656L51.7466 13.4754C65.3686 7.25662 80.9678 4.12198 98.586 4.12198V2.12198V0.121981C80.4895 0.121981 64.3088 3.34335 50.0854 9.83662L50.916 11.656ZM98.586 2.12198V4.12198C125.787 4.12198 147.547 10.9914 164.055 24.5514L165.324 23.006L166.593 21.4605C149.203 7.17519 126.47 0.121981 98.586 0.121981V2.12198ZM165.324 23.006L164.055 24.5514C180.52 38.0764 189.381 56.5934 190.567 80.3099L192.564 80.21L194.562 80.1101C193.326 55.3999 184.027 35.7809 166.593 21.4605L165.324 23.006ZM192.564 80.21V78.21H151.25V80.21V82.21H192.564V80.21ZM151.25 80.21L153.245 80.0708C152.301 66.5321 146.758 55.5677 136.621 47.3318L135.36 48.884L134.099 50.4362C143.333 57.939 148.383 67.8586 149.255 80.3492L151.25 80.21ZM135.36 48.884L136.645 47.3516C126.804 39.0973 113.588 35.08 97.224 35.08V37.08V39.08C112.943 39.08 125.151 42.9321 134.075 50.4164L135.36 48.884ZM97.224 37.08V35.08C82.1242 35.08 69.863 38.3147 60.639 44.9941L61.812 46.614L62.985 48.2339C71.3157 42.2013 82.6625 39.08 97.224 39.08V37.08ZM61.812 46.614L60.639 44.9941C51.3746 51.7028 46.646 60.613 46.646 71.584H48.646H50.646C50.646 61.9737 54.6947 54.2372 62.985 48.2339L61.812 46.614ZM48.646 71.584H46.646C46.646 80.2162 49.3808 87.5328 54.91 93.3872L56.364 92.014L57.818 90.6407C53.0565 85.5991 50.646 79.2958 50.646 71.584H48.646ZM56.364 92.014L54.9908 93.468C60.6345 98.7983 67.5023 103.159 75.5607 106.568L76.34 104.726L77.1193 102.884C69.439 99.6347 62.9895 95.5204 57.7373 90.56L56.364 92.014ZM76.34 104.726L75.6454 106.601C83.8943 109.657 95.1547 113.155 109.403 117.096L109.936 115.168L110.469 113.24C96.2666 109.312 85.1297 105.849 77.0346 102.85L76.34 104.726ZM109.936 115.168L109.413 117.098C127.22 121.927 141.648 126.741 152.726 131.532L153.52 129.696L154.314 127.86C142.995 122.966 128.367 118.094 110.459 113.238L109.936 115.168ZM153.52 129.696L152.769 131.549C163.66 135.965 172.927 142.729 180.59 151.865L182.122 150.58L183.654 149.295C175.578 139.665 165.777 132.507 154.271 127.843L153.52 129.696ZM182.122 150.58L180.614 151.894C188.415 160.85 192.539 172.624 192.834 187.394L194.834 187.354L196.834 187.314C196.524 171.817 192.173 159.075 183.63 149.266L182.122 150.58ZM194.834 187.354H192.834C192.834 200.578 189.169 212.436 181.841 222.987L183.484 224.128L185.127 225.269C192.933 214.028 196.834 201.37 196.834 187.354H194.834ZM183.484 224.128L181.841 222.987C174.509 233.545 164.066 241.957 150.419 248.187L151.25 250.006L152.081 251.825C166.279 245.343 177.325 236.503 185.127 225.269L183.484 224.128ZM151.25 250.006L150.438 248.178C137.119 254.098 121.666 257.086 104.034 257.086V259.086V261.086C122.117 261.086 138.141 258.021 152.062 251.834L151.25 250.006Z" fill="#363636" mask="url(#path-1-outside-1_1_346)"/>
</svg>
