<svg width="1286" height="140" viewBox="0 0 1286 140" fill="none" xmlns="http://www.w3.org/2000/svg">
<mask id="path-1-outside-1_1_349" maskUnits="userSpaceOnUse" x="-709" y="0" width="1995" height="140" fill="black">
<rect fill="white" x="-709" width="1995" height="140"/>
<path d="M-526.96 9.64L-559.9 136H-597.16L-617.32 52.84L-638.2 136H-675.46L-707.5 9.64H-674.56L-656.38 101.62L-633.88 9.64H-600.04L-578.44 101.62L-560.08 9.64H-526.96ZM-477.144 34.3V59.86H-435.924V83.62H-477.144V111.34H-430.524V136H-507.924V9.64H-430.524V34.3H-477.144ZM-286.536 113.68H-333.696L-341.256 136H-373.476L-327.756 9.64H-292.116L-246.396 136H-278.976L-286.536 113.68ZM-294.456 89.92L-310.116 43.66L-325.596 89.92H-294.456ZM-164.441 136L-190.721 88.3H-198.101V136H-228.881V9.64H-177.221C-167.261 9.64 -158.801 11.38 -151.841 14.86C-144.761 18.34 -139.481 23.14 -136.001 29.26C-132.521 35.26 -130.781 41.98 -130.781 49.42C-130.781 57.82 -133.181 65.32 -137.981 71.92C-142.661 78.52 -149.621 83.2 -158.861 85.96L-129.701 136H-164.441ZM-198.101 66.52H-179.021C-173.381 66.52 -169.181 65.14 -166.421 62.38C-163.541 59.62 -162.101 55.72 -162.101 50.68C-162.101 45.88 -163.541 42.1 -166.421 39.34C-169.181 36.58 -173.381 35.2 -179.021 35.2H-198.101V66.52ZM-77.0795 34.3V59.86H-35.8595V83.62H-77.0795V111.34H-30.4595V136H-107.86V9.64H-30.4595V34.3H-77.0795ZM125.768 9.64V34.3H92.2878V136H61.5078V34.3H28.0278V9.64H125.768ZM254.255 9.64V136H223.475V83.98H175.595V136H144.815V9.64H175.595V59.14H223.475V9.64H254.255ZM310.856 34.3V59.86H352.076V83.62H310.856V111.34H357.476V136H280.076V9.64H357.476V34.3H310.856ZM417.583 72.64C417.583 60.16 420.283 49.06 425.683 39.34C431.083 29.5 438.583 21.88 448.183 16.48C457.903 10.96 468.883 8.19999 481.123 8.19999C496.123 8.19999 508.963 12.16 519.643 20.08C530.323 28 537.463 38.8 541.063 52.48H507.223C504.703 47.2 501.103 43.18 496.423 40.42C491.863 37.66 486.643 36.28 480.763 36.28C471.283 36.28 463.603 39.58 457.723 46.18C451.843 52.78 448.903 61.6 448.903 72.64C448.903 83.68 451.843 92.5 457.723 99.1C463.603 105.7 471.283 109 480.763 109C486.643 109 491.863 107.62 496.423 104.86C501.103 102.1 504.703 98.08 507.223 92.8H541.063C537.463 106.48 530.323 117.28 519.643 125.2C508.963 133 496.123 136.9 481.123 136.9C468.883 136.9 457.903 134.2 448.183 128.8C438.583 123.28 431.083 115.66 425.683 105.94C420.283 96.22 417.583 85.12 417.583 72.64ZM627.952 136L601.672 88.3H594.292V136H563.512V9.64H615.172C625.132 9.64 633.592 11.38 640.552 14.86C647.632 18.34 652.912 23.14 656.392 29.26C659.872 35.26 661.612 41.98 661.612 49.42C661.612 57.82 659.212 65.32 654.412 71.92C649.732 78.52 642.772 83.2 633.532 85.96L662.692 136H627.952ZM594.292 66.52H613.372C619.012 66.52 623.212 65.14 625.972 62.38C628.852 59.62 630.292 55.72 630.292 50.68C630.292 45.88 628.852 42.1 625.972 39.34C623.212 36.58 619.012 35.2 613.372 35.2H594.292V66.52ZM715.314 34.3V59.86H756.534V83.62H715.314V111.34H761.934V136H684.534V9.64H761.934V34.3H715.314ZM804.057 65.44C792.777 59.44 787.137 50.02 787.137 37.18C787.137 30.7 788.817 24.82 792.177 19.54C795.537 14.14 800.637 9.87999 807.477 6.75999C814.317 3.51999 822.717 1.89999 832.677 1.89999C842.637 1.89999 850.977 3.51999 857.697 6.75999C864.537 9.87999 869.637 14.14 872.997 19.54C876.357 24.82 878.037 30.7 878.037 37.18C878.037 43.66 876.477 49.3 873.357 54.1C870.357 58.9 866.277 62.68 861.117 65.44C867.597 68.56 872.577 72.88 876.057 78.4C879.537 83.8 881.277 90.16 881.277 97.48C881.277 106 879.117 113.38 874.797 119.62C870.477 125.74 864.597 130.42 857.157 133.66C849.837 136.9 841.677 138.52 832.677 138.52C823.677 138.52 815.457 136.9 808.017 133.66C800.697 130.42 794.877 125.74 790.557 119.62C786.237 113.38 784.077 106 784.077 97.48C784.077 90.04 785.817 83.62 789.297 78.22C792.777 72.7 797.697 68.44 804.057 65.44ZM848.157 41.86C848.157 36.94 846.717 33.16 843.837 30.52C841.077 27.76 837.357 26.38 832.677 26.38C827.997 26.38 824.217 27.76 821.337 30.52C818.577 33.28 817.197 37.12 817.197 42.04C817.197 46.72 818.637 50.44 821.517 53.2C824.397 55.84 828.117 57.16 832.677 57.16C837.237 57.16 840.957 55.78 843.837 53.02C846.717 50.26 848.157 46.54 848.157 41.86ZM832.677 78.76C827.037 78.76 822.477 80.32 818.997 83.44C815.517 86.44 813.777 90.64 813.777 96.04C813.777 101.08 815.457 105.22 818.817 108.46C822.297 111.7 826.917 113.32 832.677 113.32C838.437 113.32 842.937 111.7 846.177 108.46C849.537 105.22 851.217 101.08 851.217 96.04C851.217 90.76 849.477 86.56 845.997 83.44C842.637 80.32 838.197 78.76 832.677 78.76ZM996.736 9.64V34.3H963.256V136H932.476V34.3H898.996V9.64H996.736ZM1046.56 9.64V136H1015.78V9.64H1046.56ZM1191.09 9.64L1146.27 136H1107.75L1062.93 9.64H1095.69L1127.01 105.04L1158.51 9.64H1191.09ZM1238.33 34.3V59.86H1279.55V83.62H1238.33V111.34H1284.95V136H1207.55V9.64H1284.95V34.3H1238.33Z"/>
</mask>
<path d="M-526.96 9.64L-525.992 9.89225L-525.666 8.64H-526.96V9.64ZM-559.9 136V137H-559.127L-558.932 136.252L-559.9 136ZM-597.16 136L-598.132 136.236L-597.947 137H-597.16V136ZM-617.32 52.84L-616.348 52.6044L-618.29 52.5965L-617.32 52.84ZM-638.2 136V137H-637.42L-637.23 136.244L-638.2 136ZM-675.46 136L-676.429 136.246L-676.238 137H-675.46V136ZM-707.5 9.64V8.64H-708.785L-708.469 9.88578L-707.5 9.64ZM-674.56 9.64L-673.579 9.4461L-673.738 8.64H-674.56V9.64ZM-656.38 101.62L-657.361 101.814L-655.409 101.858L-656.38 101.62ZM-633.88 9.64V8.64H-634.665L-634.851 9.40238L-633.88 9.64ZM-600.04 9.64L-599.066 9.41138L-599.248 8.64H-600.04V9.64ZM-578.44 101.62L-579.414 101.849L-577.459 101.816L-578.44 101.62ZM-560.08 9.64V8.64H-560.9L-561.061 9.44425L-560.08 9.64ZM-526.96 9.64L-527.928 9.38774L-560.868 135.748L-559.9 136L-558.932 136.252L-525.992 9.89225L-526.96 9.64ZM-559.9 136V135H-597.16V136V137H-559.9V136ZM-597.16 136L-596.188 135.764L-616.348 52.6044L-617.32 52.84L-618.292 53.0756L-598.132 136.236L-597.16 136ZM-617.32 52.84L-618.29 52.5965L-639.17 135.756L-638.2 136L-637.23 136.244L-616.35 53.0835L-617.32 52.84ZM-638.2 136V135H-675.46V136V137H-638.2V136ZM-675.46 136L-674.491 135.754L-706.531 9.39421L-707.5 9.64L-708.469 9.88578L-676.429 136.246L-675.46 136ZM-707.5 9.64V10.64H-674.56V9.64V8.64H-707.5V9.64ZM-674.56 9.64L-675.541 9.8339L-657.361 101.814L-656.38 101.62L-655.399 101.426L-673.579 9.4461L-674.56 9.64ZM-656.38 101.62L-655.409 101.858L-632.909 9.87761L-633.88 9.64L-634.851 9.40238L-657.351 101.382L-656.38 101.62ZM-633.88 9.64V10.64H-600.04V9.64V8.64H-633.88V9.64ZM-600.04 9.64L-601.014 9.86861L-579.414 101.849L-578.44 101.62L-577.466 101.391L-599.066 9.41138L-600.04 9.64ZM-578.44 101.62L-577.459 101.816L-559.099 9.83574L-560.08 9.64L-561.061 9.44425L-579.421 101.424L-578.44 101.62ZM-560.08 9.64V10.64H-526.96V9.64V8.64H-560.08V9.64ZM-477.144 34.3V33.3H-478.144V34.3H-477.144ZM-477.144 59.86H-478.144V60.86H-477.144V59.86ZM-435.924 59.86H-434.924V58.86H-435.924V59.86ZM-435.924 83.62V84.62H-434.924V83.62H-435.924ZM-477.144 83.62V82.62H-478.144V83.62H-477.144ZM-477.144 111.34H-478.144V112.34H-477.144V111.34ZM-430.524 111.34H-429.524V110.34H-430.524V111.34ZM-430.524 136V137H-429.524V136H-430.524ZM-507.924 136H-508.924V137H-507.924V136ZM-507.924 9.64V8.64H-508.924V9.64H-507.924ZM-430.524 9.64H-429.524V8.64H-430.524V9.64ZM-430.524 34.3V35.3H-429.524V34.3H-430.524ZM-477.144 34.3H-478.144V59.86H-477.144H-476.144V34.3H-477.144ZM-477.144 59.86V60.86H-435.924V59.86V58.86H-477.144V59.86ZM-435.924 59.86H-436.924V83.62H-435.924H-434.924V59.86H-435.924ZM-435.924 83.62V82.62H-477.144V83.62V84.62H-435.924V83.62ZM-477.144 83.62H-478.144V111.34H-477.144H-476.144V83.62H-477.144ZM-477.144 111.34V112.34H-430.524V111.34V110.34H-477.144V111.34ZM-430.524 111.34H-431.524V136H-430.524H-429.524V111.34H-430.524ZM-430.524 136V135H-507.924V136V137H-430.524V136ZM-507.924 136H-506.924V9.64H-507.924H-508.924V136H-507.924ZM-507.924 9.64V10.64H-430.524V9.64V8.64H-507.924V9.64ZM-430.524 9.64H-431.524V34.3H-430.524H-429.524V9.64H-430.524ZM-430.524 34.3V33.3H-477.144V34.3V35.3H-430.524V34.3ZM-286.536 113.68L-285.589 113.359L-285.819 112.68H-286.536V113.68ZM-333.696 113.68V112.68H-334.413L-334.643 113.359L-333.696 113.68ZM-341.256 136V137H-340.539L-340.309 136.321L-341.256 136ZM-373.476 136L-374.417 135.66L-374.902 137H-373.476V136ZM-327.756 9.64V8.64H-328.458L-328.697 9.29976L-327.756 9.64ZM-292.116 9.64L-291.176 9.29976L-291.415 8.64H-292.116V9.64ZM-246.396 136V137H-244.971L-245.456 135.66L-246.396 136ZM-278.976 136L-279.923 136.321L-279.693 137H-278.976V136ZM-294.456 89.92V90.92H-293.062L-293.509 89.5994L-294.456 89.92ZM-310.116 43.66L-309.169 43.3394L-310.122 40.5251L-311.065 43.3427L-310.116 43.66ZM-325.596 89.92L-326.545 89.6027L-326.985 90.92H-325.596V89.92ZM-286.536 113.68V112.68H-333.696V113.68V114.68H-286.536V113.68ZM-333.696 113.68L-334.643 113.359L-342.203 135.679L-341.256 136L-340.309 136.321L-332.749 114.001L-333.696 113.68ZM-341.256 136V135H-373.476V136V137H-341.256V136ZM-373.476 136L-372.536 136.34L-326.816 9.98023L-327.756 9.64L-328.697 9.29976L-374.417 135.66L-373.476 136ZM-327.756 9.64V10.64H-292.116V9.64V8.64H-327.756V9.64ZM-292.116 9.64L-293.057 9.98023L-247.337 136.34L-246.396 136L-245.456 135.66L-291.176 9.29976L-292.116 9.64ZM-246.396 136V135H-278.976V136V137H-246.396V136ZM-278.976 136L-278.029 135.679L-285.589 113.359L-286.536 113.68L-287.483 114.001L-279.923 136.321L-278.976 136ZM-294.456 89.92L-293.509 89.5994L-309.169 43.3394L-310.116 43.66L-311.063 43.9806L-295.403 90.2406L-294.456 89.92ZM-310.116 43.66L-311.065 43.3427L-326.545 89.6027L-325.596 89.92L-324.648 90.2373L-309.168 43.9773L-310.116 43.66ZM-325.596 89.92V90.92H-294.456V89.92V88.92H-325.596V89.92ZM-164.441 136L-165.317 136.483L-165.032 137H-164.441V136ZM-190.721 88.3L-189.846 87.8174L-190.131 87.3H-190.721V88.3ZM-198.101 88.3V87.3H-199.101V88.3H-198.101ZM-198.101 136V137H-197.101V136H-198.101ZM-228.881 136H-229.881V137H-228.881V136ZM-228.881 9.64V8.64H-229.881V9.64H-228.881ZM-151.841 14.86L-152.289 15.7544L-152.283 15.7574L-151.841 14.86ZM-136.001 29.26L-136.871 29.7543L-136.866 29.7617L-136.001 29.26ZM-137.981 71.92L-138.79 71.3318L-138.797 71.3416L-137.981 71.92ZM-158.861 85.96L-159.148 85.0018L-160.365 85.3655L-159.725 86.4635L-158.861 85.96ZM-129.701 136V137H-127.961L-128.837 135.497L-129.701 136ZM-198.101 66.52H-199.101V67.52H-198.101V66.52ZM-166.421 62.38L-167.113 61.658L-167.121 61.6654L-167.129 61.6729L-166.421 62.38ZM-166.421 39.34L-167.129 40.0471L-167.121 40.0546L-167.113 40.062L-166.421 39.34ZM-198.101 35.2V34.2H-199.101V35.2H-198.101ZM-164.441 136L-163.566 135.517L-189.846 87.8174L-190.721 88.3L-191.597 88.7826L-165.317 136.483L-164.441 136ZM-190.721 88.3V87.3H-198.101V88.3V89.3H-190.721V88.3ZM-198.101 88.3H-199.101V136H-198.101H-197.101V88.3H-198.101ZM-198.101 136V135H-228.881V136V137H-198.101V136ZM-228.881 136H-227.881V9.64H-228.881H-229.881V136H-228.881ZM-228.881 9.64V10.64H-177.221V9.64V8.64H-228.881V9.64ZM-177.221 9.64V10.64C-167.375 10.64 -159.076 12.3605 -152.289 15.7544L-151.841 14.86L-151.394 13.9656C-158.526 10.3995 -167.148 8.64 -177.221 8.64V9.64ZM-151.841 14.86L-152.283 15.7574C-145.36 19.1601 -140.24 23.8292 -136.871 29.7543L-136.001 29.26L-135.132 28.7657C-138.723 22.4508 -144.163 17.5199 -151.4 13.9625L-151.841 14.86ZM-136.001 29.26L-136.866 29.7617C-133.481 35.5982 -131.781 42.143 -131.781 49.42H-130.781H-129.781C-129.781 41.817 -131.562 34.9218 -135.136 28.7583L-136.001 29.26ZM-130.781 49.42H-131.781C-131.781 57.6153 -134.118 64.908 -138.79 71.3318L-137.981 71.92L-137.173 72.5082C-132.245 65.732 -129.781 58.0247 -129.781 49.42H-130.781ZM-137.981 71.92L-138.797 71.3416C-143.324 77.7262 -150.079 82.293 -159.148 85.0018L-158.861 85.96L-158.575 86.9182C-149.164 84.107 -141.998 79.3137 -137.166 72.4984L-137.981 71.92ZM-158.861 85.96L-159.725 86.4635L-130.565 136.503L-129.701 136L-128.837 135.497L-157.997 85.4565L-158.861 85.96ZM-129.701 136V135H-164.441V136V137H-129.701V136ZM-198.101 66.52V67.52H-179.021V66.52V65.52H-198.101V66.52ZM-179.021 66.52V67.52C-173.235 67.52 -168.732 66.1044 -165.714 63.0871L-166.421 62.38L-167.129 61.6729C-169.631 64.1756 -173.528 65.52 -179.021 65.52V66.52ZM-166.421 62.38L-165.73 63.102C-162.604 60.1065 -161.101 55.9165 -161.101 50.68H-162.101H-163.101C-163.101 55.5235 -164.479 59.1335 -167.113 61.658L-166.421 62.38ZM-162.101 50.68H-161.101C-161.101 45.6671 -162.613 41.6043 -165.73 38.618L-166.421 39.34L-167.113 40.062C-164.469 42.5957 -163.101 46.0929 -163.101 50.68H-162.101ZM-166.421 39.34L-165.714 38.6329C-168.732 35.6156 -173.235 34.2 -179.021 34.2V35.2V36.2C-173.528 36.2 -169.631 37.5444 -167.129 40.0471L-166.421 39.34ZM-179.021 35.2V34.2H-198.101V35.2V36.2H-179.021V35.2ZM-198.101 35.2H-199.101V66.52H-198.101H-197.101V35.2H-198.101ZM-77.0795 34.3V33.3H-78.0795V34.3H-77.0795ZM-77.0795 59.86H-78.0795V60.86H-77.0795V59.86ZM-35.8595 59.86H-34.8595V58.86H-35.8595V59.86ZM-35.8595 83.62V84.62H-34.8595V83.62H-35.8595ZM-77.0795 83.62V82.62H-78.0795V83.62H-77.0795ZM-77.0795 111.34H-78.0795V112.34H-77.0795V111.34ZM-30.4595 111.34H-29.4595V110.34H-30.4595V111.34ZM-30.4595 136V137H-29.4595V136H-30.4595ZM-107.86 136H-108.86V137H-107.86V136ZM-107.86 9.64V8.64H-108.86V9.64H-107.86ZM-30.4595 9.64H-29.4595V8.64H-30.4595V9.64ZM-30.4595 34.3V35.3H-29.4595V34.3H-30.4595ZM-77.0795 34.3H-78.0795V59.86H-77.0795H-76.0795V34.3H-77.0795ZM-77.0795 59.86V60.86H-35.8595V59.86V58.86H-77.0795V59.86ZM-35.8595 59.86H-36.8595V83.62H-35.8595H-34.8595V59.86H-35.8595ZM-35.8595 83.62V82.62H-77.0795V83.62V84.62H-35.8595V83.62ZM-77.0795 83.62H-78.0795V111.34H-77.0795H-76.0795V83.62H-77.0795ZM-77.0795 111.34V112.34H-30.4595V111.34V110.34H-77.0795V111.34ZM-30.4595 111.34H-31.4595V136H-30.4595H-29.4595V111.34H-30.4595ZM-30.4595 136V135H-107.86V136V137H-30.4595V136ZM-107.86 136H-106.86V9.64H-107.86H-108.86V136H-107.86ZM-107.86 9.64V10.64H-30.4595V9.64V8.64H-107.86V9.64ZM-30.4595 9.64H-31.4595V34.3H-30.4595H-29.4595V9.64H-30.4595ZM-30.4595 34.3V33.3H-77.0795V34.3V35.3H-30.4595V34.3ZM125.768 9.64H126.768V8.64H125.768V9.64ZM125.768 34.3V35.3H126.768V34.3H125.768ZM92.2878 34.3V33.3H91.2878V34.3H92.2878ZM92.2878 136V137H93.2878V136H92.2878ZM61.5078 136H60.5078V137H61.5078V136ZM61.5078 34.3H62.5078V33.3H61.5078V34.3ZM28.0278 34.3H27.0278V35.3H28.0278V34.3ZM28.0278 9.64V8.64H27.0278V9.64H28.0278ZM125.768 9.64H124.768V34.3H125.768H126.768V9.64H125.768ZM125.768 34.3V33.3H92.2878V34.3V35.3H125.768V34.3ZM92.2878 34.3H91.2878V136H92.2878H93.2878V34.3H92.2878ZM92.2878 136V135H61.5078V136V137H92.2878V136ZM61.5078 136H62.5078V34.3H61.5078H60.5078V136H61.5078ZM61.5078 34.3V33.3H28.0278V34.3V35.3H61.5078V34.3ZM28.0278 34.3H29.0278V9.64H28.0278H27.0278V34.3H28.0278ZM28.0278 9.64V10.64H125.768V9.64V8.64H28.0278V9.64ZM254.255 9.64H255.255V8.64H254.255V9.64ZM254.255 136V137H255.255V136H254.255ZM223.475 136H222.475V137H223.475V136ZM223.475 83.98H224.475V82.98H223.475V83.98ZM175.595 83.98V82.98H174.595V83.98H175.595ZM175.595 136V137H176.595V136H175.595ZM144.815 136H143.815V137H144.815V136ZM144.815 9.64V8.64H143.815V9.64H144.815ZM175.595 9.64H176.595V8.64H175.595V9.64ZM175.595 59.14H174.595V60.14H175.595V59.14ZM223.475 59.14V60.14H224.475V59.14H223.475ZM223.475 9.64V8.64H222.475V9.64H223.475ZM254.255 9.64H253.255V136H254.255H255.255V9.64H254.255ZM254.255 136V135H223.475V136V137H254.255V136ZM223.475 136H224.475V83.98H223.475H222.475V136H223.475ZM223.475 83.98V82.98H175.595V83.98V84.98H223.475V83.98ZM175.595 83.98H174.595V136H175.595H176.595V83.98H175.595ZM175.595 136V135H144.815V136V137H175.595V136ZM144.815 136H145.815V9.64H144.815H143.815V136H144.815ZM144.815 9.64V10.64H175.595V9.64V8.64H144.815V9.64ZM175.595 9.64H174.595V59.14H175.595H176.595V9.64H175.595ZM175.595 59.14V60.14H223.475V59.14V58.14H175.595V59.14ZM223.475 59.14H224.475V9.64H223.475H222.475V59.14H223.475ZM223.475 9.64V10.64H254.255V9.64V8.64H223.475V9.64ZM310.856 34.3V33.3H309.856V34.3H310.856ZM310.856 59.86H309.856V60.86H310.856V59.86ZM352.076 59.86H353.076V58.86H352.076V59.86ZM352.076 83.62V84.62H353.076V83.62H352.076ZM310.856 83.62V82.62H309.856V83.62H310.856ZM310.856 111.34H309.856V112.34H310.856V111.34ZM357.476 111.34H358.476V110.34H357.476V111.34ZM357.476 136V137H358.476V136H357.476ZM280.076 136H279.076V137H280.076V136ZM280.076 9.64V8.64H279.076V9.64H280.076ZM357.476 9.64H358.476V8.64H357.476V9.64ZM357.476 34.3V35.3H358.476V34.3H357.476ZM310.856 34.3H309.856V59.86H310.856H311.856V34.3H310.856ZM310.856 59.86V60.86H352.076V59.86V58.86H310.856V59.86ZM352.076 59.86H351.076V83.62H352.076H353.076V59.86H352.076ZM352.076 83.62V82.62H310.856V83.62V84.62H352.076V83.62ZM310.856 83.62H309.856V111.34H310.856H311.856V83.62H310.856ZM310.856 111.34V112.34H357.476V111.34V110.34H310.856V111.34ZM357.476 111.34H356.476V136H357.476H358.476V111.34H357.476ZM357.476 136V135H280.076V136V137H357.476V136ZM280.076 136H281.076V9.64H280.076H279.076V136H280.076ZM280.076 9.64V10.64H357.476V9.64V8.64H280.076V9.64ZM357.476 9.64H356.476V34.3H357.476H358.476V9.64H357.476ZM357.476 34.3V33.3H310.856V34.3V35.3H357.476V34.3ZM425.683 39.34L426.557 39.8256L426.56 39.8211L425.683 39.34ZM448.183 16.48L448.673 17.3516L448.677 17.3496L448.183 16.48ZM519.643 20.08L520.239 19.2768L520.239 19.2768L519.643 20.08ZM541.063 52.48V53.48H542.36L542.03 52.2255L541.063 52.48ZM507.223 52.48L506.32 52.9107L506.592 53.48H507.223V52.48ZM496.423 40.42L495.905 41.2756L495.915 41.2814L496.423 40.42ZM457.723 46.18L458.47 46.8452L458.47 46.8452L457.723 46.18ZM496.423 104.86L495.915 103.999L495.905 104.004L496.423 104.86ZM507.223 92.8V91.8H506.592L506.32 92.3693L507.223 92.8ZM541.063 92.8L542.03 93.0545L542.36 91.8H541.063V92.8ZM519.643 125.2L520.233 126.008L520.239 126.003L519.643 125.2ZM448.183 128.8L447.684 129.667L447.691 129.671L447.697 129.674L448.183 128.8ZM425.683 105.94L426.557 105.454L426.557 105.454L425.683 105.94ZM417.583 72.64H418.583C418.583 60.3088 421.249 49.3796 426.557 39.8256L425.683 39.34L424.809 38.8544C419.317 48.7404 416.583 60.0112 416.583 72.64H417.583ZM425.683 39.34L426.56 39.8211C431.872 30.1415 439.239 22.6582 448.673 17.3516L448.183 16.48L447.693 15.6084C437.927 21.1018 430.294 28.8585 424.806 38.8589L425.683 39.34ZM448.183 16.48L448.677 17.3496C458.232 11.923 469.039 9.19999 481.123 9.19999V8.19999V7.19999C468.727 7.19999 457.574 9.99697 447.689 15.6104L448.183 16.48ZM481.123 8.19999V9.19999C495.937 9.19999 508.561 13.1071 519.047 20.8832L519.643 20.08L520.239 19.2768C509.365 11.2128 496.309 7.19999 481.123 7.19999V8.19999ZM519.643 20.08L519.047 20.8832C529.533 28.6588 536.55 39.2592 540.096 52.7345L541.063 52.48L542.03 52.2255C538.376 38.3408 531.113 27.3412 520.239 19.2768L519.643 20.08ZM541.063 52.48V51.48H507.223V52.48V53.48H541.063V52.48ZM507.223 52.48L508.125 52.0493C505.527 46.6041 501.796 42.4276 496.931 39.5586L496.423 40.42L495.915 41.2814C500.41 43.9324 503.879 47.7959 506.32 52.9107L507.223 52.48ZM496.423 40.42L496.941 39.5645C492.209 36.7004 486.806 35.28 480.763 35.28V36.28V37.28C486.48 37.28 491.517 38.6196 495.905 41.2755L496.423 40.42ZM480.763 36.28V35.28C471.021 35.28 463.061 38.685 456.976 45.5148L457.723 46.18L458.47 46.8452C464.145 40.475 471.545 37.28 480.763 37.28V36.28ZM457.723 46.18L456.976 45.5148C450.895 52.3403 447.903 61.4181 447.903 72.64H448.903H449.903C449.903 61.7819 452.791 53.2197 458.47 46.8452L457.723 46.18ZM448.903 72.64H447.903C447.903 83.8619 450.895 92.9397 456.976 99.7652L457.723 99.1L458.47 98.4348C452.791 92.0603 449.903 83.4981 449.903 72.64H448.903ZM457.723 99.1L456.976 99.7652C463.061 106.595 471.021 110 480.763 110V109V108C471.545 108 464.145 104.805 458.47 98.4348L457.723 99.1ZM480.763 109V110C486.806 110 492.209 108.58 496.941 105.715L496.423 104.86L495.905 104.004C491.517 106.66 486.48 108 480.763 108V109ZM496.423 104.86L496.931 105.721C501.796 102.852 505.527 98.6759 508.125 93.2307L507.223 92.8L506.32 92.3693C503.879 97.4841 500.41 101.348 495.915 103.999L496.423 104.86ZM507.223 92.8V93.8H541.063V92.8V91.8H507.223V92.8ZM541.063 92.8L540.096 92.5455C536.55 106.021 529.533 116.621 519.047 124.397L519.643 125.2L520.239 126.003C531.113 117.939 538.376 106.939 542.03 93.0545L541.063 92.8ZM519.643 125.2L519.053 124.392C508.567 132.051 495.941 135.9 481.123 135.9V136.9V137.9C496.305 137.9 509.359 133.949 520.233 126.008L519.643 125.2ZM481.123 136.9V135.9C469.035 135.9 458.225 133.235 448.669 127.926L448.183 128.8L447.697 129.674C457.58 135.165 468.731 137.9 481.123 137.9V136.9ZM448.183 128.8L448.681 127.933C439.24 122.504 431.869 115.016 426.557 105.454L425.683 105.94L424.809 106.426C430.297 116.304 437.926 124.056 447.684 129.667L448.183 128.8ZM425.683 105.94L426.557 105.454C421.249 95.9004 418.583 84.9712 418.583 72.64H417.583H416.583C416.583 85.2688 419.317 96.5396 424.809 106.426L425.683 105.94ZM627.952 136L627.076 136.483L627.362 137H627.952V136ZM601.672 88.3L602.548 87.8174L602.263 87.3H601.672V88.3ZM594.292 88.3V87.3H593.292V88.3H594.292ZM594.292 136V137H595.292V136H594.292ZM563.512 136H562.512V137H563.512V136ZM563.512 9.64V8.64H562.512V9.64H563.512ZM640.552 14.86L640.105 15.7544L640.111 15.7574L640.552 14.86ZM656.392 29.26L655.523 29.7543L655.527 29.7617L656.392 29.26ZM654.412 71.92L653.604 71.3318L653.597 71.3416L654.412 71.92ZM633.532 85.96L633.246 85.0018L632.028 85.3655L632.668 86.4635L633.532 85.96ZM662.692 136V137H664.432L663.556 135.497L662.692 136ZM594.292 66.52H593.292V67.52H594.292V66.52ZM625.972 62.38L625.28 61.658L625.273 61.6654L625.265 61.6729L625.972 62.38ZM625.972 39.34L625.265 40.0471L625.273 40.0546L625.28 40.062L625.972 39.34ZM594.292 35.2V34.2H593.292V35.2H594.292ZM627.952 136L628.828 135.517L602.548 87.8174L601.672 88.3L600.796 88.7826L627.076 136.483L627.952 136ZM601.672 88.3V87.3H594.292V88.3V89.3H601.672V88.3ZM594.292 88.3H593.292V136H594.292H595.292V88.3H594.292ZM594.292 136V135H563.512V136V137H594.292V136ZM563.512 136H564.512V9.64H563.512H562.512V136H563.512ZM563.512 9.64V10.64H615.172V9.64V8.64H563.512V9.64ZM615.172 9.64V10.64C625.019 10.64 633.317 12.3605 640.105 15.7544L640.552 14.86L641 13.9656C633.867 10.3995 625.245 8.64 615.172 8.64V9.64ZM640.552 14.86L640.111 15.7574C647.034 19.1601 652.154 23.8292 655.523 29.7543L656.392 29.26L657.262 28.7657C653.671 22.4508 648.231 17.5199 640.993 13.9625L640.552 14.86ZM656.392 29.26L655.527 29.7617C658.912 35.5982 660.612 42.143 660.612 49.42H661.612H662.612C662.612 41.817 660.832 34.9218 657.257 28.7583L656.392 29.26ZM661.612 49.42H660.612C660.612 57.6153 658.275 64.908 653.604 71.3318L654.412 71.92L655.221 72.5082C660.149 65.732 662.612 58.0247 662.612 49.42H661.612ZM654.412 71.92L653.597 71.3416C649.069 77.7262 642.315 82.293 633.246 85.0018L633.532 85.96L633.819 86.9182C643.23 84.107 650.395 79.3137 655.228 72.4984L654.412 71.92ZM633.532 85.96L632.668 86.4635L661.828 136.503L662.692 136L663.556 135.497L634.396 85.4565L633.532 85.96ZM662.692 136V135H627.952V136V137H662.692V136ZM594.292 66.52V67.52H613.372V66.52V65.52H594.292V66.52ZM613.372 66.52V67.52C619.159 67.52 623.662 66.1044 626.679 63.0871L625.972 62.38L625.265 61.6729C622.762 64.1756 618.865 65.52 613.372 65.52V66.52ZM625.972 62.38L626.664 63.102C629.79 60.1065 631.292 55.9165 631.292 50.68H630.292H629.292C629.292 55.5235 627.915 59.1335 625.28 61.658L625.972 62.38ZM630.292 50.68H631.292C631.292 45.6671 629.78 41.6043 626.664 38.618L625.972 39.34L625.28 40.062C627.924 42.5957 629.292 46.0929 629.292 50.68H630.292ZM625.972 39.34L626.679 38.6329C623.662 35.6156 619.159 34.2 613.372 34.2V35.2V36.2C618.865 36.2 622.762 37.5444 625.265 40.0471L625.972 39.34ZM613.372 35.2V34.2H594.292V35.2V36.2H613.372V35.2ZM594.292 35.2H593.292V66.52H594.292H595.292V35.2H594.292ZM715.314 34.3V33.3H714.314V34.3H715.314ZM715.314 59.86H714.314V60.86H715.314V59.86ZM756.534 59.86H757.534V58.86H756.534V59.86ZM756.534 83.62V84.62H757.534V83.62H756.534ZM715.314 83.62V82.62H714.314V83.62H715.314ZM715.314 111.34H714.314V112.34H715.314V111.34ZM761.934 111.34H762.934V110.34H761.934V111.34ZM761.934 136V137H762.934V136H761.934ZM684.534 136H683.534V137H684.534V136ZM684.534 9.64V8.64H683.534V9.64H684.534ZM761.934 9.64H762.934V8.64H761.934V9.64ZM761.934 34.3V35.3H762.934V34.3H761.934ZM715.314 34.3H714.314V59.86H715.314H716.314V34.3H715.314ZM715.314 59.86V60.86H756.534V59.86V58.86H715.314V59.86ZM756.534 59.86H755.534V83.62H756.534H757.534V59.86H756.534ZM756.534 83.62V82.62H715.314V83.62V84.62H756.534V83.62ZM715.314 83.62H714.314V111.34H715.314H716.314V83.62H715.314ZM715.314 111.34V112.34H761.934V111.34V110.34H715.314V111.34ZM761.934 111.34H760.934V136H761.934H762.934V111.34H761.934ZM761.934 136V135H684.534V136V137H761.934V136ZM684.534 136H685.534V9.64H684.534H683.534V136H684.534ZM684.534 9.64V10.64H761.934V9.64V8.64H684.534V9.64ZM761.934 9.64H760.934V34.3H761.934H762.934V9.64H761.934ZM761.934 34.3V33.3H715.314V34.3V35.3H761.934V34.3ZM804.057 65.44L804.484 66.3444L806.287 65.4936L804.527 64.5571L804.057 65.44ZM792.177 19.54L793.021 20.0769L793.026 20.0683L792.177 19.54ZM807.477 6.75999L807.892 7.66981L807.899 7.66682L807.905 7.66373L807.477 6.75999ZM857.697 6.75999L857.263 7.66076L857.272 7.66539L857.282 7.66981L857.697 6.75999ZM872.997 19.54L872.148 20.0683L872.153 20.0769L872.997 19.54ZM873.357 54.1L872.519 53.555L872.514 53.5625L872.509 53.57L873.357 54.1ZM861.117 65.44L860.645 64.5582L858.909 65.4869L860.683 66.341L861.117 65.44ZM876.057 78.4L875.211 78.9333L875.216 78.9417L876.057 78.4ZM874.797 119.62L875.614 120.197L875.619 120.189L874.797 119.62ZM857.157 133.66L856.758 132.743L856.752 132.746L857.157 133.66ZM808.017 133.66L807.612 134.574L807.618 134.577L808.017 133.66ZM790.557 119.62L789.735 120.189L789.74 120.197L790.557 119.62ZM789.297 78.22L790.138 78.7617L790.143 78.7533L789.297 78.22ZM843.837 30.52L843.13 31.2271L843.145 31.2425L843.161 31.2571L843.837 30.52ZM821.337 30.52L820.645 29.798L820.637 29.8054L820.63 29.8129L821.337 30.52ZM821.517 53.2L820.825 53.922L820.833 53.9297L820.841 53.9372L821.517 53.2ZM843.837 53.02L843.145 52.298L843.145 52.298L843.837 53.02ZM818.997 83.44L819.65 84.1974L819.657 84.1911L819.665 84.1846L818.997 83.44ZM818.817 108.46L818.123 109.18L818.129 109.186L818.136 109.192L818.817 108.46ZM846.177 108.46L845.483 107.74L845.476 107.746L845.47 107.753L846.177 108.46ZM845.997 83.44L845.317 84.1728L845.323 84.1787L845.33 84.1846L845.997 83.44ZM804.057 65.44L804.527 64.5571C799.021 61.6284 794.937 57.8912 792.225 53.3613C789.513 48.8312 788.137 43.4501 788.137 37.18H787.137H786.137C786.137 43.7499 787.581 49.4988 790.509 54.3887C793.437 59.2788 797.813 63.2516 803.587 66.3229L804.057 65.44ZM787.137 37.18H788.137C788.137 30.8831 789.767 25.1905 793.021 20.0769L792.177 19.54L791.333 19.0031C787.868 24.4495 786.137 30.5169 786.137 37.18H787.137ZM792.177 19.54L793.026 20.0683C796.264 14.8639 801.198 10.7233 807.892 7.66981L807.477 6.75999L807.062 5.85017C800.076 9.0367 794.81 13.416 791.328 19.0117L792.177 19.54ZM807.477 6.75999L807.905 7.66373C814.576 4.50383 822.82 2.89999 832.677 2.89999V1.89999V0.899988C822.614 0.899988 814.058 2.53615 807.049 5.85625L807.477 6.75999ZM832.677 1.89999V2.89999C842.535 2.89999 850.716 4.50414 857.263 7.66076L857.697 6.75999L858.131 5.85922C851.238 2.53584 842.739 0.899988 832.677 0.899988V1.89999ZM857.697 6.75999L857.282 7.66981C863.976 10.7233 868.91 14.8639 872.148 20.0683L872.997 19.54L873.846 19.0117C870.364 13.416 865.098 9.0367 858.112 5.85017L857.697 6.75999ZM872.997 19.54L872.153 20.0769C875.408 25.1905 877.037 30.8831 877.037 37.18H878.037H879.037C879.037 30.5169 877.307 24.4495 873.841 19.0031L872.997 19.54ZM878.037 37.18H877.037C877.037 43.4928 875.52 48.9379 872.519 53.555L873.357 54.1L874.196 54.645C877.434 49.6621 879.037 43.8272 879.037 37.18H878.037ZM873.357 54.1L872.509 53.57C869.605 58.2167 865.657 61.8777 860.645 64.5582L861.117 65.44L861.589 66.3218C866.897 63.4823 871.109 59.5833 874.205 54.63L873.357 54.1ZM861.117 65.44L860.683 66.341C867.012 69.3882 871.841 73.5881 875.211 78.9333L876.057 78.4L876.903 77.8667C873.313 72.1719 868.182 67.7318 861.551 64.539L861.117 65.44ZM876.057 78.4L875.216 78.9417C878.578 84.1585 880.277 90.3246 880.277 97.48H881.277H882.277C882.277 89.9954 880.496 83.4415 876.898 77.8583L876.057 78.4ZM881.277 97.48H880.277C880.277 105.823 878.165 112.998 873.975 119.051L874.797 119.62L875.619 120.189C880.069 113.762 882.277 106.177 882.277 97.48H881.277ZM874.797 119.62L873.98 119.043C869.774 125.001 864.045 129.57 856.758 132.743L857.157 133.66L857.556 134.577C865.15 131.27 871.18 126.479 875.614 120.197L874.797 119.62ZM857.157 133.66L856.752 132.746C849.575 135.923 841.555 137.52 832.677 137.52V138.52V139.52C841.799 139.52 850.099 137.877 857.562 134.574L857.157 133.66ZM832.677 138.52V137.52C823.799 137.52 815.717 135.923 808.416 132.743L808.017 133.66L807.618 134.577C815.197 137.877 823.555 139.52 832.677 139.52V138.52ZM808.017 133.66L808.422 132.746C801.255 129.574 795.583 125.005 791.374 119.043L790.557 119.62L789.74 120.197C794.172 126.475 800.139 131.266 807.612 134.574L808.017 133.66ZM790.557 119.62L791.379 119.051C787.189 112.998 785.077 105.823 785.077 97.48H784.077H783.077C783.077 106.177 785.285 113.762 789.735 120.189L790.557 119.62ZM784.077 97.48H785.077C785.077 90.2011 786.777 83.9759 790.138 78.7617L789.297 78.22L788.456 77.6783C784.857 83.2641 783.077 89.8789 783.077 97.48H784.077ZM789.297 78.22L790.143 78.7533C793.513 73.407 798.282 69.2698 804.484 66.3444L804.057 65.44L803.63 64.5356C797.112 67.6102 792.041 71.993 788.451 77.6867L789.297 78.22ZM848.157 41.86H849.157C849.157 36.7374 847.65 32.659 844.513 29.7828L843.837 30.52L843.161 31.2571C845.784 33.661 847.157 37.1426 847.157 41.86H848.157ZM843.837 30.52L844.544 29.8129C841.56 26.8289 837.566 25.38 832.677 25.38V26.38V27.38C837.148 27.38 840.594 28.6911 843.13 31.2271L843.837 30.52ZM832.677 26.38V25.38C827.787 25.38 823.743 26.829 820.645 29.798L821.337 30.52L822.029 31.242C824.691 28.691 828.207 27.38 832.677 27.38V26.38ZM821.337 30.52L820.63 29.8129C817.637 32.8063 816.197 36.9276 816.197 42.04H817.197H818.197C818.197 37.3124 819.518 33.7537 822.044 31.2271L821.337 30.52ZM817.197 42.04H816.197C816.197 46.9413 817.714 50.9406 820.825 53.922L821.517 53.2L822.209 52.478C819.56 49.9394 818.197 46.4986 818.197 42.04H817.197ZM821.517 53.2L820.841 53.9372C823.936 56.7741 827.911 58.16 832.677 58.16V57.16V56.16C828.323 56.16 824.858 54.9059 822.193 52.4628L821.517 53.2ZM832.677 57.16V58.16C837.455 58.16 841.436 56.7062 844.529 53.742L843.837 53.02L843.145 52.298C840.478 54.8538 837.019 56.16 832.677 56.16V57.16ZM843.837 53.02L844.529 53.742C847.64 50.7606 849.157 46.7613 849.157 41.86H848.157H847.157C847.157 46.3186 845.794 49.7594 843.145 52.298L843.837 53.02ZM832.677 78.76V77.76C826.844 77.76 822.029 79.3784 818.33 82.6954L818.997 83.44L819.665 84.1846C822.925 81.2616 827.23 79.76 832.677 79.76V78.76ZM818.997 83.44L818.344 82.6826C814.604 85.9065 812.777 90.4054 812.777 96.04H813.777H814.777C814.777 90.8746 816.43 86.9735 819.65 84.1974L818.997 83.44ZM813.777 96.04H812.777C812.777 101.327 814.551 105.735 818.123 109.18L818.817 108.46L819.511 107.74C816.363 104.705 814.777 100.833 814.777 96.04H813.777ZM818.817 108.46L818.136 109.192C821.838 112.639 826.721 114.32 832.677 114.32V113.32V112.32C827.113 112.32 822.756 110.761 819.498 107.728L818.817 108.46ZM832.677 113.32V114.32C838.63 114.32 843.411 112.64 846.884 109.167L846.177 108.46L845.47 107.753C842.463 110.76 838.244 112.32 832.677 112.32V113.32ZM846.177 108.46L846.871 109.18C850.443 105.735 852.217 101.327 852.217 96.04H851.217H850.217C850.217 100.833 848.631 104.705 845.483 107.74L846.177 108.46ZM851.217 96.04H852.217C852.217 90.5167 850.385 86.0308 846.665 82.6954L845.997 83.44L845.33 84.1846C848.569 87.0892 850.217 91.0033 850.217 96.04H851.217ZM845.997 83.44L846.678 82.7072C843.096 79.3817 838.395 77.76 832.677 77.76V78.76V79.76C837.999 79.76 842.178 81.2583 845.317 84.1728L845.997 83.44ZM996.736 9.64H997.736V8.64H996.736V9.64ZM996.736 34.3V35.3H997.736V34.3H996.736ZM963.256 34.3V33.3H962.256V34.3H963.256ZM963.256 136V137H964.256V136H963.256ZM932.476 136H931.476V137H932.476V136ZM932.476 34.3H933.476V33.3H932.476V34.3ZM898.996 34.3H897.996V35.3H898.996V34.3ZM898.996 9.64V8.64H897.996V9.64H898.996ZM996.736 9.64H995.736V34.3H996.736H997.736V9.64H996.736ZM996.736 34.3V33.3H963.256V34.3V35.3H996.736V34.3ZM963.256 34.3H962.256V136H963.256H964.256V34.3H963.256ZM963.256 136V135H932.476V136V137H963.256V136ZM932.476 136H933.476V34.3H932.476H931.476V136H932.476ZM932.476 34.3V33.3H898.996V34.3V35.3H932.476V34.3ZM898.996 34.3H899.996V9.64H898.996H897.996V34.3H898.996ZM898.996 9.64V10.64H996.736V9.64V8.64H898.996V9.64ZM1046.56 9.64H1047.56V8.64H1046.56V9.64ZM1046.56 136V137H1047.56V136H1046.56ZM1015.78 136H1014.78V137H1015.78V136ZM1015.78 9.64V8.64H1014.78V9.64H1015.78ZM1046.56 9.64H1045.56V136H1046.56H1047.56V9.64H1046.56ZM1046.56 136V135H1015.78V136V137H1046.56V136ZM1015.78 136H1016.78V9.64H1015.78H1014.78V136H1015.78ZM1015.78 9.64V10.64H1046.56V9.64V8.64H1015.78V9.64ZM1191.09 9.64L1192.03 9.97429L1192.51 8.64H1191.09V9.64ZM1146.27 136V137H1146.98L1147.21 136.334L1146.27 136ZM1107.75 136L1106.81 136.334L1107.04 137H1107.75V136ZM1062.93 9.64V8.64H1061.51L1061.99 9.97429L1062.93 9.64ZM1095.69 9.64L1096.64 9.32807L1096.41 8.64H1095.69V9.64ZM1127.01 105.04L1126.06 105.352L1127.01 108.238L1127.96 105.354L1127.01 105.04ZM1158.51 9.64V8.64H1157.79L1157.56 9.32646L1158.51 9.64ZM1191.09 9.64L1190.15 9.3057L1145.33 135.666L1146.27 136L1147.21 136.334L1192.03 9.97429L1191.09 9.64ZM1146.27 136V135H1107.75V136V137H1146.27V136ZM1107.75 136L1108.69 135.666L1063.87 9.3057L1062.93 9.64L1061.99 9.97429L1106.81 136.334L1107.75 136ZM1062.93 9.64V10.64H1095.69V9.64V8.64H1062.93V9.64ZM1095.69 9.64L1094.74 9.95192L1126.06 105.352L1127.01 105.04L1127.96 104.728L1096.64 9.32807L1095.69 9.64ZM1127.01 105.04L1127.96 105.354L1159.46 9.95354L1158.51 9.64L1157.56 9.32646L1126.06 104.726L1127.01 105.04ZM1158.51 9.64V10.64H1191.09V9.64V8.64H1158.51V9.64ZM1238.33 34.3V33.3H1237.33V34.3H1238.33ZM1238.33 59.86H1237.33V60.86H1238.33V59.86ZM1279.55 59.86H1280.55V58.86H1279.55V59.86ZM1279.55 83.62V84.62H1280.55V83.62H1279.55ZM1238.33 83.62V82.62H1237.33V83.62H1238.33ZM1238.33 111.34H1237.33V112.34H1238.33V111.34ZM1284.95 111.34H1285.95V110.34H1284.95V111.34ZM1284.95 136V137H1285.95V136H1284.95ZM1207.55 136H1206.55V137H1207.55V136ZM1207.55 9.64V8.64H1206.55V9.64H1207.55ZM1284.95 9.64H1285.95V8.64H1284.95V9.64ZM1284.95 34.3V35.3H1285.95V34.3H1284.95ZM1238.33 34.3H1237.33V59.86H1238.33H1239.33V34.3H1238.33ZM1238.33 59.86V60.86H1279.55V59.86V58.86H1238.33V59.86ZM1279.55 59.86H1278.55V83.62H1279.55H1280.55V59.86H1279.55ZM1279.55 83.62V82.62H1238.33V83.62V84.62H1279.55V83.62ZM1238.33 83.62H1237.33V111.34H1238.33H1239.33V83.62H1238.33ZM1238.33 111.34V112.34H1284.95V111.34V110.34H1238.33V111.34ZM1284.95 111.34H1283.95V136H1284.95H1285.95V111.34H1284.95ZM1284.95 136V135H1207.55V136V137H1284.95V136ZM1207.55 136H1208.55V9.64H1207.55H1206.55V136H1207.55ZM1207.55 9.64V10.64H1284.95V9.64V8.64H1207.55V9.64ZM1284.95 9.64H1283.95V34.3H1284.95H1285.95V9.64H1284.95ZM1284.95 34.3V33.3H1238.33V34.3V35.3H1284.95V34.3Z" fill="#4D4D4D" fill-opacity="0.5" mask="url(#path-1-outside-1_1_349)"/>
</svg>
